<svg aria-hidden="true" style="width:40px;height:40px;position:absolute;overflow:hidden" xmlns="http://www.w3.org/2000/svg"><defs><symbol id="icon-close-modal-1" viewBox="0 0 32 32"><path d="m26.667 7.303-1.97-1.97-7.808 7.808-7.808-7.808-1.97 1.97 7.808 7.808-7.808 7.808 1.97 1.97 7.808-7.808 7.808 7.808 1.97-1.97-7.808-7.808 7.808-7.808z"/></symbol><symbol id="icon-email" viewBox="0 0 32 32"><path d="M26.667 5.333H5.334A2.663 2.663 0 0 0 2.681 8l-.013 16c0 1.467 1.2 2.667 2.667 2.667h21.333c1.467 0 2.667-1.2 2.667-2.667V8c0-1.467-1.2-2.667-2.667-2.667zM26.133 11l-9.427 5.893a1.346 1.346 0 0 1-1.413 0L5.866 11a1.132 1.132 0 1 1 1.2-1.92l8.933 5.587 8.933-5.587a1.132 1.132 0 1 1 1.2 1.92z"/></symbol><symbol id="icon-phone" viewBox="0 0 32 32"><path d="m24.882 19.773-3.268-.373a2.561 2.561 0 0 0-2.11.733L17.137 22.5a19.357 19.357 0 0 1-8.478-8.478l2.38-2.38a2.561 2.561 0 0 0 .733-2.11l-.373-3.242a2.575 2.575 0 0 0-2.56-2.277H6.613c-1.454 0-2.663 1.209-2.573 2.663.682 10.987 9.469 19.761 20.443 20.443 1.454.09 2.663-1.119 2.663-2.573V22.32a2.55 2.55 0 0 0-2.264-2.547z"/></symbol><symbol id="icon-in" viewBox="0 0 32 32"><path fill="#fff" style="fill:var(--color1,#fff)" d="M32 16v.02a15.9 15.9 0 0 1-4.686 11.293A15.902 15.902 0 0 1 16.021 32H16h.001-.02a15.9 15.9 0 0 1-11.293-4.686A15.902 15.902 0 0 1 .001 16.021V16v.001-.02A15.9 15.9 0 0 1 4.687 4.688 15.902 15.902 0 0 1 15.98.001h.021H16h.02a15.9 15.9 0 0 1 11.293 4.686A15.902 15.902 0 0 1 32 15.98v.021V16z"/><path fill="#afb1b8" style="fill:var(--color2,#afb1b8)" d="M23.269 23.273h.004v-5.335c0-2.609-.561-4.62-3.612-4.62-1.467 0-2.451.804-2.853 1.567h-.042v-1.324h-2.893v9.711h3.012v-4.808c0-1.266.24-2.491 1.808-2.491 1.545 0 1.568 1.445 1.568 2.572v4.728h3.009zM8.967 13.562h3.016v9.711H8.967v-9.711zm1.507-4.835c-.965 0-1.747.782-1.747 1.747 0 .964.783 1.763 1.747 1.763s1.746-.799 1.746-1.763c0-.964-.782-1.746-1.746-1.747z"/></symbol><symbol id="icon-camera" viewBox="0 0 32 32"><path d="M9.5 19a6.5 6.5 0 1 0 13 0 6.5 6.5 0 0 0-13 0zM30 8h-7c-.5-2-1-4-3-4h-8c-2 0-2.5 2-3 4H2c-1.1 0-2 .9-2 2v18c0 1.1.9 2 2 2h28c1.1 0 2-.9 2-2V10c0-1.1-.9-2-2-2zM16 27.875c-4.902 0-8.875-3.973-8.875-8.875s3.973-8.875 8.875-8.875 8.875 3.973 8.875 8.875-3.973 8.875-8.875 8.875zM30 14h-4v-2h4v2z"/></symbol><symbol id="icon-coin-yen" viewBox="0 0 32 32"><path d="M15 2C6.716 2 0 8.716 0 17s6.716 15 15 15c8.284 0 15-6.716 15-15S23.284 2 15 2zm0 27C8.373 29 3 23.627 3 17S8.373 5 15 5s12 5.373 12 12-5.373 12-12 12z"/><path d="M19 18a1 1 0 0 0 0-2h-2.131l2.963-4.445a1.001 1.001 0 0 0-1.664-1.11L15 15.197l-3.168-4.752a1 1 0 1 0-1.664 1.11L13.132 16H11a1 1 0 0 0 0 2h3v2h-3a1 1 0 0 0 0 2h3v3a1 1 0 0 0 2 0v-3h3a1 1 0 0 0 0-2h-3v-2h3z"/></symbol><symbol id="icon-bubbles2" viewBox="0 0 36 32"><path d="M15 0c8.284 0 15 5.435 15 12.139s-6.716 12.139-15 12.139c-.796 0-1.576-.051-2.339-.147C9.439 27.34 5.718 27.916 2 28v-.785c2.008-.98 3.625-2.765 3.625-4.804 0-.285-.022-.564-.063-.837C2.17 19.349 0 15.949 0 12.14 0 5.436 6.716.001 15 .001zm16.125 27.209c0 1.748 1.135 3.278 2.875 4.118V32c-3.223-.072-6.181-.566-8.973-3.316-.661.083-1.337.126-2.027.126-2.983 0-5.732-.805-7.925-2.157 4.521-.016 8.789-1.464 12.026-4.084 1.631-1.32 2.919-2.87 3.825-4.605.961-1.84 1.449-3.799 1.449-5.825 0-.326-.014-.651-.039-.974C34.604 13.038 36 15.591 36 18.405c0 3.265-1.88 6.179-4.82 8.086a4.722 4.722 0 0 0-.055.718z"/></symbol><symbol id="icon-search" viewBox="0 0 32 32"><path d="m31.008 27.231-7.58-6.447c-.784-.705-1.622-1.029-2.299-.998a11.954 11.954 0 0 0 2.87-7.787c0-6.627-5.373-12-12-12s-12 5.373-12 12 5.373 12 12 12c2.972 0 5.691-1.081 7.787-2.87-.031.677.293 1.515.998 2.299l6.447 7.58c1.104 1.226 2.907 1.33 4.007.23s.997-2.903-.23-4.007zM12 20a8 8 0 1 1 0-16 8 8 0 0 1 0 16z"/></symbol><symbol id="icon-checkmark2" viewBox="0 0 32 32"><path d="M12.42 28.678-.013 16.44l6.168-6.071 6.265 6.167L25.846 3.322l6.168 6.071L12.42 28.678zM3.372 16.441l9.048 8.905L28.628 9.393l-2.782-2.739L12.42 19.868l-6.265-6.167-2.782 2.739z"/></symbol><symbol id="icon-instagram" viewBox="0 0 32 32"><path d="M16 2.881c4.275 0 4.781.019 6.462.094 1.563.069 2.406.331 2.969.55a4.952 4.952 0 0 1 1.837 1.194 5.015 5.015 0 0 1 1.2 1.838c.219.563.481 1.412.55 2.969.075 1.688.094 2.194.094 6.463s-.019 4.781-.094 6.463c-.069 1.563-.331 2.406-.55 2.969a4.94 4.94 0 0 1-1.194 1.837 5.02 5.02 0 0 1-1.837 1.2c-.563.219-1.413.481-2.969.55-1.688.075-2.194.094-6.463.094s-4.781-.019-6.463-.094c-1.563-.069-2.406-.331-2.969-.55a4.952 4.952 0 0 1-1.838-1.194 5.02 5.02 0 0 1-1.2-1.837c-.219-.563-.481-1.413-.55-2.969-.075-1.688-.094-2.194-.094-6.463s.019-4.781.094-6.463c.069-1.563.331-2.406.55-2.969a4.964 4.964 0 0 1 1.194-1.838 5.015 5.015 0 0 1 1.838-1.2c.563-.219 1.412-.481 2.969-.55 1.681-.075 2.188-.094 6.463-.094zM16 0c-4.344 0-4.887.019-6.594.094-1.7.075-2.869.35-3.881.744-1.056.412-1.95.956-2.837 1.85a7.833 7.833 0 0 0-1.85 2.831C.444 6.538.169 7.7.094 9.4.019 11.113 0 11.656 0 16s.019 4.887.094 6.594c.075 1.7.35 2.869.744 3.881.413 1.056.956 1.95 1.85 2.837a7.82 7.82 0 0 0 2.831 1.844c1.019.394 2.181.669 3.881.744 1.706.075 2.25.094 6.594.094s4.888-.019 6.594-.094c1.7-.075 2.869-.35 3.881-.744 1.05-.406 1.944-.956 2.831-1.844s1.438-1.781 1.844-2.831c.394-1.019.669-2.181.744-3.881.075-1.706.094-2.25.094-6.594s-.019-4.887-.094-6.594c-.075-1.7-.35-2.869-.744-3.881a7.506 7.506 0 0 0-1.831-2.844A7.82 7.82 0 0 0 26.482.843C25.463.449 24.301.174 22.601.099c-1.712-.081-2.256-.1-6.6-.1z"/><path d="M16 7.781c-4.537 0-8.219 3.681-8.219 8.219s3.681 8.219 8.219 8.219 8.219-3.681 8.219-8.219A8.221 8.221 0 0 0 16 7.781zm0 13.55a5.331 5.331 0 1 1 0-10.663 5.331 5.331 0 0 1 0 10.663zM26.462 7.456a1.919 1.919 0 1 1-3.838 0 1.919 1.919 0 0 1 3.838 0z"/></symbol><symbol id="icon-telegram" viewBox="0 0 32 32"><path d="M16 0C7.162 0 0 7.162 0 16s7.162 16 16 16 16-7.163 16-16S24.837 0 16 0zm7.863 10.969-2.625 12.369c-.181.881-.712 1.087-1.45.681l-4-2.956-1.919 1.869c-.225.219-.4.4-.8.4-.519 0-.431-.194-.606-.688L11.1 18.169l-3.956-1.231c-.856-.262-.862-.85.194-1.269l15.412-5.95c.7-.319 1.381.169 1.113 1.25z"/></symbol><symbol id="icon-cool" viewBox="0 0 32 32"><path d="M16 32c8.837 0 16-7.163 16-16S24.837 0 16 0 0 7.163 0 16s7.163 16 16 16zm0-29c7.18 0 13 5.82 13 13s-5.82 13-13 13S3 23.18 3 16 8.82 3 16 3zm9 5c.55 0 1 .45 1 1v3c0 1.1-.9 2-2 2h-4c-1.1 0-2-.9-2-2h-4c0 1.1-.9 2-2 2H8c-1.1 0-2-.9-2-2V9c0-.55.45-1 1-1h6c.55 0 1 .45 1 1v1h4V9c0-.55.45-1 1-1h6zm-9 16a7.995 7.995 0 0 0 6.861-3.884l1.715 1.029A9.996 9.996 0 0 1 16 26a9.953 9.953 0 0 1-4.236-.94l1.036-1.727c.98.429 2.061.668 3.199.668z"/></symbol></defs></svg>